<svg version="1.2" xmlns="http://www.w3.org/2000/svg" viewBox="0 0 200 200" width="200" height="200">
	<title>White and Black Modern Feather Cleaning Logo (1)-pdf</title>
	<style>
		.s0 { fill: #000000 } 
		.s1 { fill: #ffffff } 
	</style>
	<path id="Shape 1" class="s0" d="m100 200c-55.3 0-100-44.7-100-100 0-55.3 44.7-100 100-100 55.3 0 100 44.7 100 100 0 55.3-44.7 100-100 100z"/>
	<path id="Path 3" class="s1" d="m50.4 146.5c1.9-3.9 3.6-9.2 4.5-13.9 0.2-1.2-0.2-2.3-1.2-3-1-0.8-2.5-1.7-4.2-2 0 0 2.1-1.1 4.8 0-4.3-3-3-25.1 4.9-38.8 0 1.1 0 2.3-0.1 3.4 2.1-6.5 6.5-12.3 12.3-16.2-2.6 4.1-4.1 8.8-4.1 13.7 1.2-5.7 3.6-11.2 7.7-15.5 9.5-9.9 25.6-10.7 36.4-19.1-0.2 1.1-1 6.4-1.2 7.5 2.1-6.2 11.8-11 16-16.1q-0.1 1.9-0.2 3.9c0.7-3.3 3.7-5.6 6.2-7.9 2.5-2.3 5-5.4 4.2-8.7 2.2 8.1-1.8 17.4-6.5 24.1-3.6 5.2-15.9 9.4-22.2 8.4 1.3 0.2 9.1 1.1 10.3 1.3-10.7 0.3-31.5 59.9-56.5 60.9 4.3 0.1 7.7 4 7.7 4 0 0-6.6-2.3-9.4-2-0.7 0 6.3-29 33.2-56.4-28.7 24.9-35.1 58-35.3 58.6-2.3 7.6-4.9 15.4-9.8 21.6-0.7 0.8-2.3 1.6-2.7 0.6 2.1-2.7 3.8-5.4 5.3-8.4zm64.1-3.7c0-3.3-8-4-11.9-4h-1c-10 0-23.4 3.4-30.9 6.1-4.6 1.7-9.1 3.2-13.5 5-1.4 0.5-5.7 2.3-9 3.8q-0.2 0.3-0.5 0.6-0.1 0.1-0.3 0.3c1.2-0.4 2.4-0.9 3.5-1.3 2.2-0.7 4.2-1.3 6.4-2.1 3.8-1.2 9.1-3 13-3.8 9.2-1.9 18-4.9 29.1-4.9h1.3c1.9 0 8 0.3 8 1.8 0 1.6-6.9 6.3-8.3 7.7-2 2-6 6.4-6 10 0 3.4 3.8 3.1 5.1 4h5.5c0.1-0.1 5.7-1.1 6.5-1.4 2.1-0.6 4-1.3 5.9-2 3.9-1.2 7.5-3.1 11.2-4.6 7.2-2.9 14.2-7.2 21-10.5 1.4-0.7 3.3-1.7 5.1-2.7-12.9 3.3-34.2 16.5-49.5 16.5h-1c-1.2 0-4-0.6-4-1.6v-0.4c0-3.5 14.3-11.5 14.3-16.5z"/>
</svg>